<?xml version="1.0" standalone="no"?>
<!DOCTYPE svg PUBLIC "-//W3C//DTD SVG 20010904//EN"
 "http://www.w3.org/TR/2001/REC-SVG-20010904/DTD/svg10.dtd">
<svg version="1.0" xmlns="http://www.w3.org/2000/svg"
 width="500.000000pt" height="500.000000pt" viewBox="0 0 500.000000 500.000000"
 preserveAspectRatio="xMidYMid meet">

<g transform="translate(0.000000,500.000000) scale(0.100000,-0.100000)"
fill="#000000" stroke="none">
<path d="M2365 3848 c-78 -68 -155 -213 -155 -291 0 -18 12 -73 26 -121 l25
-88 -22 -17 c-54 -40 -147 -93 -198 -112 -92 -35 -223 -51 -316 -38 -142 19
-232 67 -362 191 -45 43 -98 85 -117 93 -79 33 -148 8 -184 -67 -35 -75 -43
-154 -41 -415 1 -271 2 -268 -66 -418 -56 -123 -69 -225 -40 -323 32 -106 162
-210 328 -261 87 -27 235 -45 251 -32 7 6 52 11 101 13 62 2 90 7 93 16 3 11
-13 12 -81 8 -60 -3 -90 -1 -103 8 -11 7 -48 16 -84 20 -197 19 -363 104 -424
216 -26 49 -28 58 -24 139 3 48 13 103 22 124 l16 37 173 0 c262 0 667 -33
972 -80 863 -131 1436 -160 1875 -95 183 27 369 75 469 121 29 13 56 24 59 24
2 0 2 -20 0 -45 -18 -157 -259 -251 -703 -273 -208 -11 -2744 1 -2770 13 -18
8 -19 7 -5 -9 8 -11 32 -30 54 -44 l39 -24 1396 -2 c1283 -1 1406 0 1516 17
166 24 266 51 361 97 159 77 212 181 168 329 -19 66 -67 119 -141 159 -64 33
-340 115 -533 157 -266 57 -298 74 -628 318 -114 84 -243 178 -287 209 -89 62
-181 140 -390 328 -77 70 -150 132 -162 138 -37 20 -70 14 -108 -20z m107 -65
c20 -16 109 -94 200 -175 191 -171 210 -187 343 -281 55 -39 178 -129 274
-200 314 -234 356 -255 611 -312 235 -52 464 -119 540 -157 64 -33 114 -86
108 -117 -3 -16 -37 -29 -183 -71 -236 -68 -454 -95 -765 -94 -312 1 -515 21
-1175 114 -551 77 -856 108 -1150 116 -110 3 -205 7 -212 9 -8 3 -6 21 8 65
17 54 19 94 19 319 0 336 17 411 94 411 40 0 64 -16 153 -104 135 -133 253
-185 439 -193 133 -6 232 15 358 76 82 40 171 102 189 132 7 11 2 43 -17 110
-32 116 -33 149 0 219 31 66 100 160 118 160 7 0 28 -12 48 -27z"/>
<path d="M552 2868 c-7 -8 -48 -23 -92 -32 -72 -16 -100 -29 -87 -42 2 -2 41
5 87 15 57 14 88 17 101 11 10 -6 37 -10 60 -10 124 0 193 -157 139 -315 -46
-134 -9 -233 114 -309 28 -18 29 -18 22 0 -5 11 -13 33 -19 49 -5 17 -20 42
-32 56 -46 56 -51 84 -26 166 30 104 35 151 22 215 -15 71 -59 140 -110 174
-50 32 -159 46 -179 22z"/>
<path d="M1795 1882 c-43 -27 -55 -45 -57 -86 -2 -48 23 -73 89 -92 29 -9 53
-21 53 -29 0 -21 -44 -26 -96 -10 -26 8 -49 13 -49 12 -1 -1 -9 -13 -18 -27
-9 -13 -17 -30 -17 -37 0 -30 154 -44 213 -19 58 24 89 85 66 129 -16 29 -24
34 -86 52 -88 26 -57 65 35 44 25 -5 46 -8 47 -7 1 2 10 17 18 34 16 30 15 32
-9 43 -41 18 -154 14 -189 -7z"/>
<path d="M2085 1878 c-11 -51 -55 -274 -55 -283 0 -6 21 -9 49 -7 l49 4 13 64
c7 35 15 64 19 64 3 0 23 -29 45 -65 38 -61 42 -65 78 -65 20 0 40 0 44 0 5
-1 22 69 39 155 l31 156 -51 -3 -50 -3 -13 -64 c-13 -64 -22 -85 -29 -66 -3 6
-22 38 -44 73 -38 59 -41 62 -80 62 -33 0 -40 -4 -45 -22z"/>
<path d="M2475 1888 c-12 -33 -61 -299 -56 -301 3 -1 62 0 131 3 l124 5 7 33
6 32 -78 0 c-57 0 -79 4 -79 13 0 27 18 36 80 39 64 3 64 3 71 36 l6 32 -68 0
c-38 0 -69 3 -69 8 1 23 22 31 90 34 l74 3 7 32 c3 18 4 35 1 38 -3 3 -59 5
-124 5 -86 0 -120 -3 -123 -12z"/>
<path d="M2872 1843 c-46 -68 -162 -251 -162 -255 0 -2 25 -1 56 0 47 3 57 8
66 28 10 22 17 24 74 24 60 0 63 -1 68 -27 6 -26 10 -28 56 -28 28 0 50 2 50
5 0 3 -17 74 -37 158 l-37 152 -48 0 c-46 0 -48 -1 -86 -57z m78 -105 c0 -24
-4 -28 -30 -28 -16 0 -30 2 -30 4 0 3 10 21 21 41 24 40 39 33 39 -17z"/>
<path d="M3185 1878 c-14 -66 -55 -274 -55 -283 0 -6 20 -9 49 -7 46 4 49 6
55 34 6 33 23 58 37 58 5 0 22 -21 38 -46 28 -46 29 -46 85 -48 31 0 56 1 56
4 0 3 -23 41 -50 85 l-50 80 28 24 c55 48 122 112 122 116 0 3 -23 5 -51 5
-48 0 -55 -4 -117 -57 -56 -50 -64 -55 -60 -33 4 14 9 40 13 58 l7 32 -51 0
c-44 0 -51 -3 -56 -22z"/>
<path d="M3556 1883 c-6 -22 -56 -273 -56 -285 0 -4 59 -8 130 -8 121 0 130 1
130 19 0 11 3 26 6 35 5 14 -5 16 -75 16 -45 0 -81 3 -81 6 0 3 5 14 10 25 9
16 22 19 75 19 57 0 65 2 65 19 0 11 3 26 6 35 5 14 -4 16 -60 16 -59 0 -66 2
-66 20 0 18 7 20 80 20 69 0 80 2 80 18 0 9 3 27 6 40 6 22 6 22 -119 22 -111
0 -126 -2 -131 -17z"/>
<path d="M3885 1888 c-2 -7 -17 -77 -33 -155 l-28 -143 51 0 c51 0 52 0 61 37
12 50 29 52 53 5 18 -34 26 -40 59 -43 69 -7 73 -4 46 46 -24 43 -24 43 -5 50
33 10 61 59 61 105 0 56 -12 75 -60 94 -50 20 -198 23 -205 4z m159 -90 c17
-27 -5 -52 -48 -56 -38 -3 -39 -2 -30 47 6 29 10 32 37 29 16 -2 35 -11 41
-20z"/>
<path d="M4272 1884 c-58 -30 -81 -105 -42 -144 10 -10 44 -26 75 -35 57 -17
72 -39 33 -48 -22 -6 -74 3 -109 17 -12 5 -22 -3 -37 -28 l-21 -36 21 -11 c27
-15 127 -23 171 -15 55 10 97 55 97 103 0 48 -16 64 -87 87 -29 10 -55 22 -58
27 -11 17 45 30 84 19 49 -14 48 -14 67 21 22 44 8 53 -84 57 -57 2 -86 -2
-110 -14z"/>
<path d="M2360 1380 c-41 -41 -20 -86 52 -109 44 -14 52 -24 43 -51 -8 -25
-65 -36 -105 -20 -17 7 -34 9 -38 6 -14 -15 33 -36 80 -36 39 0 54 5 74 25 39
39 29 65 -38 98 -41 19 -58 33 -58 47 0 34 67 53 110 30 13 -7 19 -6 23 4 9
22 -2 26 -65 26 -45 0 -63 -5 -78 -20z"/>
<path d="M2606 1379 c-62 -49 -75 -132 -27 -180 57 -56 175 -30 207 46 24 58
15 112 -25 142 -27 21 -124 16 -155 -8z m138 -20 c48 -38 25 -128 -41 -155
-102 -43 -168 63 -89 142 41 41 89 46 130 13z"/>
<path d="M2906 1379 c-62 -49 -75 -132 -27 -180 25 -24 38 -29 78 -29 48 0 99
23 88 40 -3 5 -22 2 -41 -6 -42 -18 -84 -11 -109 16 -13 15 -16 30 -12 62 11
79 95 124 154 83 14 -10 24 -12 28 -5 26 42 -110 58 -159 19z"/>
<path d="M3131 1293 c-25 -128 -25 -123 -7 -123 9 0 20 34 35 108 25 127 25
122 7 122 -9 0 -20 -34 -35 -107z"/>
<path d="M3257 1313 c-10 -49 -20 -100 -23 -115 l-6 -28 86 0 c102 0 116 18
19 22 -73 3 -72 1 -58 66 5 20 11 22 65 22 33 0 60 4 60 10 0 6 -25 10 -55 10
-59 0 -63 5 -49 58 6 20 12 22 75 22 39 0 69 4 69 10 0 6 -34 10 -83 10 l-83
0 -17 -87z"/>
<path d="M3480 1390 c0 -5 15 -10 34 -10 19 0 37 -3 39 -7 3 -5 -3 -46 -14
-93 -22 -102 -23 -110 -6 -110 9 0 20 30 31 88 27 130 22 122 67 122 21 0 39
5 39 10 0 6 -38 10 -95 10 -57 0 -95 -4 -95 -10z"/>
<path d="M3700 1393 c0 -3 12 -36 26 -72 20 -50 25 -75 20 -108 -4 -33 -2 -43
9 -43 8 0 17 15 21 38 4 23 28 64 66 112 37 46 55 76 47 79 -7 2 -26 -14 -43
-35 -17 -21 -40 -49 -52 -62 l-20 -24 -24 61 c-14 33 -30 61 -37 61 -7 0 -13
-3 -13 -7z"/>
<path d="M2180 1260 c0 -5 20 -10 45 -10 25 0 45 5 45 10 0 6 -20 10 -45 10
-25 0 -45 -4 -45 -10z"/>
<path d="M3910 1260 c0 -5 20 -10 45 -10 25 0 45 5 45 10 0 6 -20 10 -45 10
-25 0 -45 -4 -45 -10z"/>
</g>
</svg>
